<svg width="37" height="37" viewBox="0 0 37 37" fill="none" xmlns="http://www.w3.org/2000/svg">
<path d="M34.2292 0H1.99218C1.46382 0 0.957101 0.20989 0.583495 0.583495C0.20989 0.957101 0 1.46382 0 1.99218V34.2292C0 34.7576 0.20989 35.2643 0.583495 35.6379C0.957101 36.0115 1.46382 36.2214 1.99218 36.2214H19.3422V22.1856H14.6334V16.7524H19.3422V12.6775C19.2447 11.7208 19.3576 10.7544 19.6731 9.84595C19.9886 8.93754 20.4991 8.10915 21.1686 7.41889C21.8382 6.72863 22.6506 6.19321 23.549 5.85019C24.4474 5.50717 25.41 5.36485 26.3692 5.43321C27.7788 5.42454 29.1877 5.4971 30.589 5.65054V10.5404H27.7094C25.4274 10.5404 24.9928 11.6271 24.9928 13.2027V16.6981H30.426L29.7197 22.1313H24.9928V36.2214H34.2292C34.4908 36.2214 34.7499 36.1699 34.9916 36.0698C35.2333 35.9696 35.4529 35.8229 35.6379 35.6379C35.8229 35.4529 35.9696 35.2333 36.0698 34.9916C36.1699 34.7499 36.2214 34.4908 36.2214 34.2292V1.99218C36.2214 1.73056 36.1699 1.47151 36.0698 1.2298C35.9696 0.988102 35.8229 0.768486 35.6379 0.583495C35.4529 0.398505 35.2333 0.251762 34.9916 0.151646C34.7499 0.0515293 34.4908 0 34.2292 0Z" fill="#87A6B7"/>
</svg>
