<svg width="36" height="36" viewBox="0 0 36 36" fill="none" xmlns="http://www.w3.org/2000/svg">
<path d="M25.8077 0H9.50812C6.98724 0.00269661 4.57038 1.00531 2.78784 2.78784C1.00531 4.57038 0.00269661 6.98724 0 9.50812V25.8077C0.00269661 28.3286 1.00531 30.7455 2.78784 32.528C4.57038 34.3106 6.98724 35.3132 9.50812 35.3159H25.8077C28.3286 35.3132 30.7455 34.3106 32.528 32.528C34.3106 30.7455 35.3132 28.3286 35.3159 25.8077V9.50812C35.3132 6.98724 34.3106 4.57038 32.528 2.78784C30.7455 1.00531 28.3286 0.00269661 25.8077 0ZM17.6579 25.8077C16.0461 25.8077 14.4704 25.3298 13.1301 24.4343C11.7899 23.5387 10.7453 22.2659 10.1285 20.7767C9.51165 19.2875 9.35025 17.6489 9.66472 16.068C9.97918 14.4871 10.7554 13.0349 11.8951 11.8951C13.0349 10.7554 14.4871 9.97918 16.068 9.66472C17.6489 9.35025 19.2875 9.51165 20.7767 10.1285C22.2659 10.7453 23.5387 11.7899 24.4343 13.1301C25.3298 14.4704 25.8077 16.0461 25.8077 17.6579C25.8055 19.8187 24.9461 21.8903 23.4182 23.4182C21.8903 24.9461 19.8187 25.8055 17.6579 25.8077ZM27.8452 9.50812C27.4422 9.50812 27.0483 9.38862 26.7133 9.16475C26.3782 8.94087 26.1171 8.62266 25.9628 8.25036C25.8086 7.87807 25.7683 7.4684 25.8469 7.07318C25.9255 6.67795 26.1196 6.31491 26.4045 6.02997C26.6894 5.74502 27.0525 5.55097 27.4477 5.47236C27.8429 5.39374 28.2526 5.43409 28.6249 5.5883C28.9972 5.74251 29.3154 6.00366 29.5393 6.33872C29.7632 6.67377 29.8827 7.06769 29.8827 7.47066C29.8827 8.01103 29.668 8.52927 29.2859 8.91136C28.9038 9.29346 28.3856 9.50812 27.8452 9.50812ZM23.0911 17.6579C23.0911 18.7325 22.7725 19.783 22.1755 20.6765C21.5785 21.5699 20.7299 22.2663 19.7371 22.6776C18.7443 23.0888 17.6519 23.1964 16.598 22.9867C15.544 22.7771 14.5759 22.2596 13.8161 21.4998C13.0562 20.7399 12.5388 19.7718 12.3291 18.7179C12.1195 17.664 12.2271 16.5715 12.6383 15.5787C13.0495 14.5859 13.7459 13.7374 14.6394 13.1404C15.5329 12.5434 16.5833 12.2247 17.6579 12.2247C19.0989 12.2247 20.4809 12.7971 21.4998 13.8161C22.5187 14.835 23.0911 16.217 23.0911 17.6579Z" fill="#87A6B7"/>
</svg>
