<svg width="33" height="33" viewBox="0 0 33 33" fill="none" xmlns="http://www.w3.org/2000/svg">
<path fill-rule="evenodd" clip-rule="evenodd" d="M27.1661 0C28.607 0 29.989 0.572426 31.0079 1.59135C32.0268 2.61028 32.5993 3.99223 32.5993 5.43321V27.1661C32.5993 28.607 32.0268 29.989 31.0079 31.0079C29.989 32.0268 28.607 32.5993 27.1661 32.5993H5.43321C3.99223 32.5993 2.61028 32.0268 1.59135 31.0079C0.572426 29.989 0 28.607 0 27.1661V5.43321C0 3.99223 0.572426 2.61028 1.59135 1.59135C2.61028 0.572426 3.99223 0 5.43321 0H27.1661ZM9.05535 12.6775C8.57503 12.6775 8.11437 12.8683 7.77473 13.2079C7.43509 13.5476 7.24428 14.0082 7.24428 14.4886V23.5439C7.24428 24.0242 7.43509 24.4849 7.77473 24.8245C8.11437 25.1642 8.57503 25.355 9.05535 25.355C9.53568 25.355 9.99633 25.1642 10.336 24.8245C10.6756 24.4849 10.8664 24.0242 10.8664 23.5439V14.4886C10.8664 14.0082 10.6756 13.5476 10.336 13.2079C9.99633 12.8683 9.53568 12.6775 9.05535 12.6775ZM14.4886 10.8664C14.0082 10.8664 13.5476 11.0572 13.2079 11.3969C12.8683 11.7365 12.6775 12.1972 12.6775 12.6775V23.5439C12.6775 24.0242 12.8683 24.4849 13.2079 24.8245C13.5476 25.1642 14.0082 25.355 14.4886 25.355C14.9689 25.355 15.4295 25.1642 15.7692 24.8245C16.1088 24.4849 16.2996 24.0242 16.2996 23.5439V16.9154C17.0062 16.1468 17.8655 15.5343 18.8225 15.117C19.4255 14.8598 20.3329 14.7548 20.9631 14.954C21.1722 15.0071 21.3584 15.1265 21.4938 15.2945C21.588 15.4213 21.7328 15.7038 21.7328 16.2996V23.5439C21.7328 24.0242 21.9237 24.4849 22.2633 24.8245C22.6029 25.1642 23.0636 25.355 23.5439 25.355C24.0242 25.355 24.4849 25.1642 24.8245 24.8245C25.1642 24.4849 25.355 24.0242 25.355 23.5439V16.2996C25.355 15.0862 25.0471 14.0068 24.406 13.1411C23.816 12.3561 22.9904 11.7805 22.0498 11.4985C20.4162 10.986 18.6069 11.2703 17.399 11.7883C17.0119 11.9539 16.6351 12.1426 16.2707 12.3533C16.1947 11.936 15.9748 11.5586 15.6491 11.2869C15.3234 11.0152 14.9127 10.8664 14.4886 10.8664ZM9.05535 7.24428C8.57503 7.24428 8.11437 7.43509 7.77473 7.77473C7.43509 8.11437 7.24428 8.57503 7.24428 9.05535C7.24428 9.53568 7.43509 9.99633 7.77473 10.336C8.11437 10.6756 8.57503 10.8664 9.05535 10.8664C9.53568 10.8664 9.99633 10.6756 10.336 10.336C10.6756 9.99633 10.8664 9.53568 10.8664 9.05535C10.8664 8.57503 10.6756 8.11437 10.336 7.77473C9.99633 7.43509 9.53568 7.24428 9.05535 7.24428Z" fill="#87A6B7"/>
</svg>
