<svg width="37" height="29" viewBox="0 0 37 29" fill="none" xmlns="http://www.w3.org/2000/svg">
<path d="M32.5993 0H3.62214C1.62996 0 0.0181107 1.62996 0.0181107 3.62214L0 25.355C0 27.3472 1.62996 28.9771 3.62214 28.9771H32.5993C34.5914 28.9771 36.2214 27.3472 36.2214 25.355V3.62214C36.2214 1.62996 34.5914 0 32.5993 0ZM31.8748 7.69705L19.0706 15.702C18.491 16.0642 17.7304 16.0642 17.1508 15.702L4.34657 7.69705C4.16497 7.59511 4.00594 7.45737 3.87911 7.29219C3.75228 7.12701 3.66029 6.93781 3.60869 6.73604C3.5571 6.53428 3.54699 6.32414 3.57896 6.11835C3.61093 5.91256 3.68433 5.7154 3.7947 5.5388C3.90508 5.3622 4.05014 5.20983 4.22111 5.09091C4.39208 4.97199 4.5854 4.889 4.78937 4.84697C4.99334 4.80493 5.20372 4.80471 5.40777 4.84633C5.61183 4.88795 5.80532 4.97054 5.97653 5.08911L18.1107 12.6775L30.2449 5.08911C30.4161 4.97054 30.6096 4.88795 30.8136 4.84633C31.0177 4.80471 31.2281 4.80493 31.432 4.84697C31.636 4.889 31.8293 4.97199 32.0003 5.09091C32.1713 5.20983 32.3163 5.3622 32.4267 5.5388C32.5371 5.7154 32.6105 5.91256 32.6424 6.11835C32.6744 6.32414 32.6643 6.53428 32.6127 6.73604C32.5611 6.93781 32.4691 7.12701 32.3423 7.29219C32.2155 7.45737 32.0564 7.59511 31.8748 7.69705Z" fill="#87A6B7"/>
</svg>
